<svg width="479" height="164" viewBox="0 0 479 164" fill="none" xmlns="http://www.w3.org/2000/svg">
<path d="M459.263 53.7986C458.466 49.7011 456.645 46.4003 453.8 43.6687C449.816 39.7988 444.011 37.8638 436.727 37.8638C429.328 37.8638 423.524 39.7988 419.54 43.6687C416.694 46.4003 414.873 49.7011 414.077 53.7986H459.263ZM413.621 61.1969H395.182V60.8555C395.182 60.6278 395.182 60.4002 395.182 60.1726C395.182 48.5629 398.256 39.685 404.402 33.5387C411.8 25.3437 422.613 21.2462 436.727 21.2462C451.068 21.2462 461.767 25.3437 469.052 33.5387C475.084 39.685 478.157 48.5629 478.157 60.1726C478.157 71.7822 475.084 80.6601 469.052 86.8064C461.767 95.0014 451.068 99.0989 436.727 99.0989C422.613 99.0989 411.8 95.0014 404.402 86.8064C400.987 83.3918 398.483 79.1805 397.004 74.0586H418.516C418.857 74.4 419.198 74.7415 419.54 75.0829C423.524 79.0666 429.328 81.0016 436.727 81.0016C444.125 81.0016 449.816 79.0666 453.8 75.0829C457.442 71.5545 459.491 66.8879 459.718 61.0831H435.019L413.621 61.1969Z" fill="#FF7A4D"/>
<path d="M342.294 43.7601C342.294 32.9472 371.091 36.0203 372.457 46.947H391.692C387.936 12.8011 315.547 16.5571 320.555 47.2885C324.652 72.3289 372.001 62.6542 372.001 77.7922C372.001 88.2636 343.66 86.8978 337.4 76.8816H318.278C322.945 110.686 400.456 103.857 393.969 74.7191C388.847 51.7275 342.294 55.825 342.294 43.7601Z" fill="#FF7A4D"/>
<path d="M299.384 6.07073V14.721H318.278V6.07073H299.384ZM299.384 99.403H318.278V22.5746H299.384V99.403Z" fill="#FF7A4D"/>
<path d="M18.894 53.7986C19.6907 49.7011 21.5118 46.4003 24.3573 43.6687C28.341 39.7988 34.1458 37.8638 41.4303 37.8638C48.8286 37.8638 54.6334 39.7988 58.6171 43.6687C61.4626 46.4003 63.2837 49.7011 64.0805 53.7986H18.894ZM64.5357 61.1969H82.9746V60.8555C82.9746 60.6278 82.9746 60.4002 82.9746 60.1726C82.9746 48.5629 79.9014 39.685 73.7552 33.5387C66.3569 25.3437 55.544 21.2462 41.4303 21.2462C27.089 21.2462 16.3899 25.3437 9.10547 33.5387C3.07301 39.685 -0.00012207 48.5629 -0.00012207 60.1726C-0.00012207 71.7822 3.07301 80.6601 9.10547 86.8064C16.3899 95.0014 27.089 99.0989 41.4303 99.0989C55.544 99.0989 66.3569 95.0014 73.7552 86.8064C77.1698 83.3918 79.6738 79.1805 81.1535 74.0586H59.6415C59.3 74.4 58.9586 74.7415 58.6171 75.0829C54.6334 79.0666 48.8286 81.0016 41.4303 81.0016C34.032 81.0016 28.341 79.0666 24.3573 75.0829C20.7151 71.5545 18.6663 66.8879 18.4387 61.0831H43.1376L64.5357 61.1969Z" fill="#FF7A4D"/>
<path d="M145.272 78.8772C141.516 82.9747 136.166 84.9096 129.11 84.9096C122.167 84.9096 116.817 82.9747 113.061 78.8772C109.419 74.7797 107.484 69.0887 107.484 61.5766C107.484 54.0644 109.419 48.3734 113.061 44.3897C116.817 40.2922 122.167 38.2435 129.11 38.2435C136.166 38.2435 141.516 40.2922 145.272 44.3897C149.028 48.3734 150.963 54.0644 150.963 61.5766C150.963 69.0887 149.028 74.7797 145.272 78.8772ZM151.191 39.7231C150.28 38.1297 149.142 36.5362 148.004 35.0565C142.199 27.5444 133.435 23.7883 121.711 23.7883C109.988 23.7883 101.11 27.5444 95.4188 35.0565C89.614 42.4548 86.7685 51.3328 86.7685 61.5766C86.7685 71.9342 89.614 80.9259 95.4188 88.2104C101.11 95.6087 109.988 99.3647 121.711 99.3647C133.435 99.3647 142.199 95.6087 148.004 88.2104C151.418 83.9991 153.695 79.2186 155.174 73.9829C155.288 73.8691 155.402 73.7553 155.402 73.7553L151.191 98.7956H171.792V0H151.191C151.191 2.84549 151.191 21.512 151.191 39.7231Z" fill="#FF7A4D"/>
<path d="M279.352 22.7645L262.279 96.6336L245.775 22.7645H225.401L225.515 23.2198L208.556 96.6336L192.052 22.7645H171.792L188.979 99.4791H228.247L235.531 67.6096L242.702 99.4791H281.856L299.384 22.7645H279.352Z" fill="#FF7A4D"/>
<path d="M27.1852 140.865C26.9496 139.8 26.5501 138.77 25.9867 137.777C25.4233 136.773 24.7011 135.871 23.8202 135.072C22.9495 134.263 21.9252 133.623 20.7472 133.152C19.5795 132.681 18.2684 132.445 16.8138 132.445C14.591 132.445 12.6192 133.029 10.8983 134.197C9.18766 135.354 7.84579 137.008 6.87268 139.159C5.90981 141.3 5.42837 143.835 5.42837 146.765C5.42837 149.664 5.90981 152.189 6.87268 154.34C7.83555 156.491 9.18254 158.156 10.9137 159.334C12.655 160.501 14.6781 161.085 16.9828 161.085C19.0417 161.085 20.865 160.609 22.4527 159.656C24.0507 158.704 25.2953 157.341 26.1864 155.569C27.0776 153.797 27.5129 151.677 27.4924 149.208L28.1685 149.531H17.4745V147.748H29.367V149.531C29.367 152.307 28.8343 154.699 27.769 156.706C26.714 158.704 25.2492 160.24 23.3746 161.316C21.5104 162.391 19.3798 162.929 16.9828 162.929C14.2786 162.929 11.9175 162.258 9.89957 160.916C7.88164 159.574 6.31442 157.695 5.1979 155.277C4.09162 152.85 3.53848 150.012 3.53848 146.765C3.53848 144.327 3.85602 142.115 4.49111 140.127C5.12619 138.14 6.03273 136.44 7.21071 135.026C8.38869 133.602 9.79202 132.512 11.4207 131.754C13.0494 130.985 14.8471 130.601 16.8138 130.601C18.5961 130.601 20.1992 130.898 21.623 131.492C23.0469 132.076 24.2761 132.865 25.3106 133.859C26.3554 134.842 27.2005 135.943 27.8458 137.162C28.4912 138.371 28.9265 139.605 29.1519 140.865H27.1852Z" fill="black" fill-opacity="0.5"/>
<path d="M35.0013 162.499V131.031H52.5174V132.814H36.9219V145.859H51.5801V147.641H36.9219V160.716H52.8861V162.499H35.0013Z" fill="black" fill-opacity="0.5"/>
<path d="M56.2272 132.814V131.031H78.2759V132.814H68.2119V162.499H66.2913V132.814H56.2272Z" fill="black" fill-opacity="0.5"/>
<path d="M81.0217 132.814V131.031H103.07V132.814H93.0063V162.499H91.0857V132.814H81.0217Z" fill="black" fill-opacity="0.5"/>
<path d="M109.826 131.031V162.499H107.906V131.031H109.826Z" fill="black" fill-opacity="0.5"/>
<path d="M140.817 131.031V162.499H138.942L118.876 134.519H118.691V162.499H116.771V131.031H118.66L138.727 159.042H138.911V131.031H140.817Z" fill="black" fill-opacity="0.5"/>
<path d="M169.783 140.865C169.547 139.8 169.148 138.77 168.584 137.777C168.021 136.773 167.299 135.871 166.418 135.072C165.547 134.263 164.523 133.623 163.345 133.152C162.177 132.681 160.866 132.445 159.411 132.445C157.189 132.445 155.217 133.029 153.496 134.197C151.785 135.354 150.443 137.008 149.47 139.159C148.507 141.3 148.026 143.835 148.026 146.765C148.026 149.664 148.507 152.189 149.47 154.34C150.433 156.491 151.78 158.156 153.511 159.334C155.253 160.501 157.276 161.085 159.58 161.085C161.639 161.085 163.463 160.609 165.05 159.656C166.648 158.704 167.893 157.341 168.784 155.569C169.675 153.797 170.11 151.677 170.09 149.208L170.766 149.531H160.072V147.748H171.965V149.531C171.965 152.307 171.432 154.699 170.367 156.706C169.312 158.704 167.847 160.24 165.972 161.316C164.108 162.391 161.977 162.929 159.58 162.929C156.876 162.929 154.515 162.258 152.497 160.916C150.479 159.574 148.912 157.695 147.795 155.277C146.689 152.85 146.136 150.012 146.136 146.765C146.136 144.327 146.454 142.115 147.089 140.127C147.724 138.14 148.63 136.44 149.808 135.026C150.986 133.602 152.39 132.512 154.018 131.754C155.647 130.985 157.445 130.601 159.411 130.601C161.194 130.601 162.797 130.898 164.221 131.492C165.644 132.076 166.874 132.865 167.908 133.859C168.953 134.842 169.798 135.943 170.443 137.162C171.089 138.371 171.524 139.605 171.749 140.865H169.783Z" fill="black" fill-opacity="0.5"/>
<path d="M187.605 162.499V131.031H205.167V132.814H189.525V145.859H203.707V147.641H189.525V162.499H187.605Z" fill="black" fill-opacity="0.5"/>
<path d="M232.105 131.031H234.025V151.866C234.025 154.007 233.528 155.917 232.535 157.597C231.541 159.267 230.169 160.588 228.417 161.562C226.676 162.524 224.673 163.006 222.409 163.006C220.156 163.006 218.153 162.524 216.402 161.562C214.65 160.588 213.272 159.262 212.268 157.582C211.275 155.902 210.783 153.997 210.793 151.866V131.031H212.714V151.759C212.714 153.572 213.124 155.185 213.943 156.599C214.773 158.012 215.915 159.129 217.37 159.948C218.824 160.757 220.504 161.162 222.409 161.162C224.314 161.162 225.994 160.757 227.449 159.948C228.903 159.129 230.04 158.012 230.86 156.599C231.69 155.185 232.105 153.572 232.105 151.759V131.031Z" fill="black" fill-opacity="0.5"/>
<path d="M238.864 132.814V131.031H260.913V132.814H250.849V162.499H248.928V132.814H238.864Z" fill="black" fill-opacity="0.5"/>
<path d="M287.06 131.031H288.98V151.866C288.98 154.007 288.483 155.917 287.49 157.597C286.496 159.267 285.124 160.588 283.372 161.562C281.631 162.524 279.628 163.006 277.364 163.006C275.111 163.006 273.108 162.524 271.357 161.562C269.605 160.588 268.227 159.262 267.223 157.582C266.23 155.902 265.738 153.997 265.748 151.866V131.031H267.669V151.759C267.669 153.572 268.079 155.185 268.898 156.599C269.728 158.012 270.87 159.129 272.325 159.948C273.779 160.757 275.459 161.162 277.364 161.162C279.27 161.162 280.949 160.757 282.404 159.948C283.859 159.129 284.996 158.012 285.815 156.599C286.645 155.185 287.06 153.572 287.06 151.759V131.031Z" fill="black" fill-opacity="0.5"/>
<path d="M295.909 162.499V131.031H305.604C307.592 131.031 309.302 131.421 310.736 132.199C312.17 132.978 313.271 134.058 314.04 135.441C314.808 136.814 315.192 138.412 315.192 140.235C315.192 142.038 314.808 143.626 314.04 144.998C313.271 146.36 312.17 147.426 310.736 148.194C309.312 148.962 307.607 149.346 305.62 149.346H296.938V147.549H305.574C307.192 147.549 308.575 147.247 309.722 146.642C310.869 146.038 311.75 145.193 312.365 144.107C312.979 143.011 313.287 141.72 313.287 140.235C313.287 138.739 312.979 137.439 312.365 136.332C311.75 135.216 310.864 134.35 309.707 133.736C308.56 133.121 307.177 132.814 305.558 132.814H297.83V162.499H295.909ZM308.831 148.24L316.575 162.499H314.362L306.664 148.24H308.831Z" fill="black" fill-opacity="0.5"/>
<path d="M320.703 162.499V131.031H338.22V132.814H322.624V145.859H337.282V147.641H322.624V160.716H338.588V162.499H320.703Z" fill="black" fill-opacity="0.5"/>
<path d="M354.025 162.499V131.031H363.72C365.707 131.031 367.418 131.421 368.852 132.199C370.286 132.978 371.387 134.058 372.155 135.441C372.924 136.814 373.308 138.412 373.308 140.235C373.308 142.038 372.924 143.626 372.155 144.998C371.387 146.36 370.286 147.426 368.852 148.194C367.428 148.962 365.723 149.346 363.735 149.346H355.054V147.549H363.689C365.308 147.549 366.691 147.247 367.838 146.642C368.985 146.038 369.866 145.193 370.481 144.107C371.095 143.011 371.402 141.72 371.402 140.235C371.402 138.739 371.095 137.439 370.481 136.332C369.866 135.216 368.98 134.35 367.822 133.736C366.675 133.121 365.292 132.814 363.674 132.814H355.945V162.499H354.025ZM366.947 148.24L374.691 162.499H372.478L364.78 148.24H366.947Z" fill="black" fill-opacity="0.5"/>
<path d="M378.819 162.499V131.031H396.335V132.814H380.74V145.859H395.398V147.641H380.74V160.716H396.704V162.499H378.819Z" fill="black" fill-opacity="0.5"/>
<path d="M400.921 162.499H398.893L410.247 131.031H412.46L423.815 162.499H421.786L411.43 133.505H411.277L400.921 162.499ZM403.794 150.652H418.913V152.435H403.794V150.652Z" fill="black" fill-opacity="0.5"/>
<path d="M436.248 162.499H427.521V131.031H436.924C439.874 131.031 442.399 131.656 444.499 132.906C446.599 134.156 448.207 135.948 449.324 138.284C450.45 140.609 451.009 143.4 450.998 146.658C450.988 149.987 450.404 152.834 449.247 155.2C448.089 157.556 446.414 159.364 444.222 160.624C442.03 161.874 439.372 162.499 436.248 162.499ZM429.441 160.716H436.171C438.978 160.716 441.344 160.158 443.27 159.042C445.195 157.915 446.65 156.302 447.633 154.202C448.627 152.102 449.119 149.587 449.108 146.658C449.108 143.769 448.632 141.295 447.679 139.236C446.727 137.167 445.339 135.579 443.516 134.473C441.702 133.367 439.48 132.814 436.847 132.814H429.441V160.716Z" fill="black" fill-opacity="0.5"/>
<path d="M451.654 131.031H453.928L463.839 146.212H464.054L473.964 131.031H476.238L464.914 148.225V162.499H462.978V148.225L451.654 131.031Z" fill="black" fill-opacity="0.5"/>
</svg>
