<?xml version="1.0" encoding="utf-8"?>
<!-- Generator: Adobe Illustrator 26.0.3, SVG Export Plug-In . SVG Version: 6.00 Build 0)  -->
<svg version="1.1" id="Layer_1" xmlns="http://www.w3.org/2000/svg" xmlns:xlink="http://www.w3.org/1999/xlink" x="0px" y="0px"
	 viewBox="0 0 375 139.7" style="enable-background:new 0 0 375 139.7;" xml:space="preserve">
<style type="text/css">
	.st0{clip-path:url(#SVGID_00000070079976574325684710000000599853897469602949_);}
	.st1{fill-rule:evenodd;clip-rule:evenodd;fill:#005968;}
	.st2{fill-rule:evenodd;clip-rule:evenodd;fill:#FF914D;}
	.st3{clip-path:url(#SVGID_00000081621536694293579340000018148964899907303582_);}
	.st4{clip-path:url(#SVGID_00000039837530194568533600000002119883351626727313_);}
	.st5{clip-path:url(#SVGID_00000103967110126168467230000011739061573825363134_);}
	.st6{fill:#FF914D;}
	.st7{fill:#005968;}
</style>
<g>
	<defs>
		<rect id="SVGID_1_" x="208.1" y="22.9" width="17.5" height="61.8"/>
	</defs>
	<clipPath id="SVGID_00000070817660758939589580000007338815538060078248_">
		<use xlink:href="#SVGID_1_"  style="overflow:visible;"/>
	</clipPath>
	<g style="clip-path:url(#SVGID_00000070817660758939589580000007338815538060078248_);">
		<path class="st1" d="M220.9,43.6v91.7h2.6V43.4c-0.8,0-1.7,0-2.5,0C220.9,43.4,220.9,43.5,220.9,43.6z M214.9,43.6v91.6h3.9V43.4
			c-1.3,0-2.6,0-3.9,0C214.9,43.4,214.9,43.5,214.9,43.6z M210.2,43.6v91.7h2.8V43.4c-0.9,0-1.8,0-2.7,0
			C210.2,43.4,210.2,43.5,210.2,43.6z M210.5,41.7h12.6c-1.2-2.9-2.4-5.7-3.6-8.6H214C212.7,36,211.6,38.8,210.5,41.7z M214.6,31.5
			h4.2c-0.7-1.7-1.3-3.4-2.1-5C216,28.1,215.3,29.8,214.6,31.5z M216.4,23c1.1-0.2,1.5,1,1.8,1.9c2.2,5.2,4,9.7,6.2,14.9
			c0.3,0.8,0.9,1.7,1,2.4c0.3,1.8,0,3.9,0,5.9c0,28.6,0,57,0,85.7c0,1.1,0.1,2.5-0.2,2.7c-0.4,0.3-2.8,0.2-4.1,0.2h-8.6
			c-1.2,0-3.6,0.2-4-0.2c-0.6-0.5-0.2-4.3-0.2-5.7V48c0-2-0.3-4.1,0-5.9c0.1-0.8,0.6-1.6,0.9-2.5c1.9-4.8,3.9-9.5,5.8-14.4
			C215.3,24.7,215.6,23.2,216.4,23"/>
	</g>
</g>
<path class="st1" d="M216.7,26.4c0.8,1.6,1.4,3.4,2.1,5h-4.2C215.3,29.8,216,28.1,216.7,26.4"/>
<path class="st2" d="M214,33.2h5.5c1.2,2.8,2.4,5.7,3.6,8.6h-12.6C211.6,38.8,212.7,36,214,33.2"/>
<g>
	<defs>
		<rect id="SVGID_00000089551378703934295360000012635052998759535502_" x="209.6" y="43" width="4.1" height="41.7"/>
	</defs>
	<use xlink:href="#SVGID_00000089551378703934295360000012635052998759535502_"  style="overflow:visible;fill:#FF914D;"/>
	<clipPath id="SVGID_00000049191638416995640310000011764196441993116307_">
		<use xlink:href="#SVGID_00000089551378703934295360000012635052998759535502_"  style="overflow:visible;"/>
	</clipPath>
	<g style="clip-path:url(#SVGID_00000049191638416995640310000011764196441993116307_);">
		<path class="st2" d="M210.3,43.4h2.7v91.9h-2.8V43.6C210.2,43.5,210.2,43.4,210.3,43.4"/>
	</g>
</g>
<g>
	<defs>
		<rect id="SVGID_00000176027126383076232040000006425645442450495932_" x="213.7" y="43" width="5.5" height="41.7"/>
	</defs>
	<clipPath id="SVGID_00000045587160793066640320000008348932082848870802_">
		<use xlink:href="#SVGID_00000176027126383076232040000006425645442450495932_"  style="overflow:visible;"/>
	</clipPath>
	<g style="clip-path:url(#SVGID_00000045587160793066640320000008348932082848870802_);">
		<path class="st1" d="M215,43.4h3.9v91.8h-3.9V43.6C214.9,43.5,214.9,43.4,215,43.4"/>
	</g>
</g>
<g>
	<defs>
		<rect id="SVGID_00000049942024582496326180000008294256380425256861_" x="220.5" y="43" width="4.1" height="41.7"/>
	</defs>
	<clipPath id="SVGID_00000124131145493682554590000010178448747160060310_">
		<use xlink:href="#SVGID_00000049942024582496326180000008294256380425256861_"  style="overflow:visible;"/>
	</clipPath>
	<g style="clip-path:url(#SVGID_00000124131145493682554590000010178448747160060310_);">
		<path class="st2" d="M220.9,43.4h2.5v91.9h-2.6V43.6C220.9,43.5,220.9,43.4,220.9,43.4"/>
	</g>
</g>
<g>
	<g>
		<g>
			<path class="st6" d="M75.5,67.8c-0.9,4.3-1.6,9.4-2.2,15.4L72.5,84c-10.6-0.4-19.2-0.6-25.8-0.6c-4.7,0-9.4,0.3-14.2,0.8l0.6-5.6
				c2.3-0.3,3.9-1,4.7-2c0.8-1,1.3-2.7,1.3-5.2l0.1-31.7c0-1.8-0.2-3-0.5-3.6c-0.3-0.6-1-0.9-2.1-0.9c-0.7,0-1.6,0.1-2.6,0.2
				l-0.5-0.7l0.7-5h1.7C39.6,30,44,30.1,49,30.1c12.4,0,20.8-0.3,25.3-1l0.7,0.9c-0.4,2-0.8,4.5-1.2,7.3c-0.4,2.8-0.6,5.4-0.7,7.7
				l-7.4,0.5l0.2-3.3c0-1.7-0.2-2.8-0.7-3.5c-0.5-0.7-1.4-1.2-2.8-1.4c-1.4-0.3-3.8-0.4-7.1-0.4c-1.4,0-2.4,0.1-3,0.2
				c-0.5,0.1-0.9,0.4-1.1,0.7c-0.2,0.4-0.3,1-0.4,1.9l-0.6,13l7.8,0.1c1.2,0,2.6-0.1,4.4-0.2c1.7-0.1,3.5-0.3,5.3-0.5l0.7,0.7
				l-1.2,7c-0.7,0-1.3,0-1.7-0.1c-3.9-0.1-6.9-0.1-9.2-0.1c-1.7,0-3.9,0.2-6.4,0.5l-0.2,11.9c0,1.5,0.1,2.7,0.4,3.3
				c0.3,0.7,0.7,1.1,1.4,1.3c0.7,0.2,1.9,0.3,3.6,0.3c3.7,0,6.3-0.2,7.9-0.6c1.6-0.4,2.8-1.3,3.5-2.5c0.7-1.3,1.3-3.4,1.7-6.3
				l6.8-0.6L75.5,67.8z"/>
		</g>
	</g>
</g>
<g>
	<g>
		<g>
			<path class="st6" d="M115.3,84.5c-4.9,0-7.7-2-8.3-6l-0.5-0.1c-5.4,3.9-8.6,5.8-9.7,5.8c-4.8,0-8.7-1.6-11.5-4.9
				c-2.8-3.3-4.3-7.7-4.3-13.3c0-4.1,0.9-7.8,2.7-11.1c1.8-3.3,4.3-5.9,7.5-7.7c3.2-1.9,6.8-2.8,10.8-2.8c1.3,0,2.8,0.1,4.3,0.3
				V33.8c0-1.7-0.3-2.9-0.8-3.6c-0.5-0.7-1.4-1-2.7-1c-0.4,0-0.9,0-1.2,0.1c-0.4,0.1-0.6,0.1-0.7,0.2l0.5-4.9
				c3.3-0.4,6.6-0.9,9.9-1.5c3.3-0.6,5.5-1,6.5-1.2l0.7,1.4c-0.7,1-1.3,6.4-1.8,16.2c-0.5,9.8-0.7,20.8-0.7,33.2
				c0,1.1,0.2,1.9,0.7,2.5c0.5,0.6,1.1,0.9,1.9,0.9c0.6,0,1.2-0.1,1.8-0.3c0.6-0.2,1-0.4,1.4-0.7c0.4-0.2,0.6-0.4,0.7-0.4l1.3,1.7
				c-0.2,0.3-0.6,1.1-1.4,2.2c-0.8,1.1-1.8,2.3-3,3.5C117.9,83.2,116.6,84,115.3,84.5z M99.8,76.5c0.9,0,1.8-0.2,2.8-0.6
				c1-0.4,1.8-0.8,2.4-1.3c0.6-0.4,1-0.7,1.2-0.9v-21c-0.1-0.1-0.4-0.2-1-0.4c-0.5-0.2-1.3-0.4-2.1-0.7c-0.9-0.2-1.9-0.3-3-0.3
				c-2.7,0-4.8,1-6.3,3c-1.5,2-2.2,4.9-2.2,8.6c0,4.1,0.8,7.4,2.3,9.9C95.3,75.2,97.3,76.5,99.8,76.5z"/>
		</g>
	</g>
</g>
<g>
	<g>
		<g>
			<path class="st6" d="M141.2,84.7c-0.8-3.1-2.5-9.6-5-19.4c-2.6-9.9-4.9-18.1-6.9-24.8c-0.5-1.7-1.2-3-2.2-3.7
				c-1-0.8-2.2-1.2-3.9-1.3l-0.3-0.6l0.6-4.9c0.7,0,2.1,0,4.1,0.1c2,0.1,4,0.1,6,0.1c2.8,0,5.5-0.1,8.3-0.3c2.7-0.2,4.5-0.3,5.3-0.4
				l0.4,0.7l-0.4,4.9c-1.9,0.2-3.3,0.4-4.1,0.6c-0.8,0.2-1.4,0.5-1.7,0.8c-0.3,0.4-0.4,0.9-0.4,1.7c0,1.4,1.1,6.7,3.2,15.9
				c2.1,9.2,3.6,15.4,4.4,18.7h1c1.6-4.3,4.7-14.3,9.3-30c-0.2-1.2-0.4-2.4-0.7-3.6c-0.3-1.4-1-2.3-1.9-2.8
				c-0.9-0.5-2.4-0.8-4.3-0.9l-0.3-0.6l0.7-4.9c0.8,0,2.3,0,4.6,0.1c2.2,0.1,4.4,0.1,6.7,0.1c2.5,0,5.2-0.1,8-0.3
				c2.8-0.2,4.6-0.3,5.4-0.4l0.4,0.7l-0.4,4.9c-1.9,0.2-3.3,0.4-4.2,0.6c-0.8,0.2-1.4,0.5-1.7,0.9c-0.3,0.4-0.4,1-0.4,1.7
				c0,1.2,1.1,6.4,3.2,15.7c2.1,9.2,3.6,15.5,4.5,18.8h1c1.3-3.4,3.3-9.8,6.1-19.2c2.8-9.4,4.2-14.7,4.2-15.9c0-0.9-0.3-1.5-0.9-1.8
				c-0.6-0.3-1.7-0.5-3.3-0.5h-3.2l-0.3-0.6l0.6-5.1c0.8,0.1,2.4,0.1,4.9,0.3c2.5,0.1,4.9,0.2,7,0.2c2.1,0,4,0,5.8-0.1
				c1.8-0.1,2.9-0.1,3.4-0.1l-0.6,5.4c-1.3,0.2-2.2,0.6-2.7,1.1c-0.6,0.5-1.1,1.6-1.6,3.2L183.7,83L171,84.7
				c-0.3-1.8-1.1-5.6-2.5-11.3c-1.4-5.7-3-12-4.9-18.7h-0.7L154,83L141.2,84.7z"/>
		</g>
	</g>
</g>
<g>
	<g>
		<g>
			<path class="st6" d="M243.6,84.5c-2,0-3.8-0.2-5.4-0.5c-1.6-0.3-2.9-0.7-3.9-1c-0.9-0.4-1.5-0.6-1.7-0.7l-0.5-0.8
				c0.2-1.5,0.4-3.2,0.6-5.2c0.2-2,0.4-3.9,0.5-5.7l4.6-0.4c0.1,5.6,2.5,8.4,7.4,8.4c1.6,0,2.9-0.3,4-1c1.1-0.7,1.6-1.6,1.6-2.6
				c0-1.1-0.6-2.1-1.7-3c-1.1-0.9-3.3-2.2-6.6-3.8c-3.3-1.6-5.7-3.2-7.2-4.9c-1.5-1.7-2.2-3.8-2.2-6.1c0-2.5,0.7-4.7,2.2-6.6
				c1.4-1.9,3.5-3.4,6.1-4.5c2.6-1.1,5.6-1.6,8.9-1.6c1.6,0,3.1,0.1,4.5,0.3c1.4,0.2,2.5,0.4,3.3,0.7c0.8,0.2,1.3,0.4,1.5,0.4
				l0.4,0.8c-0.1,0.6-0.4,2-0.7,4.1c-0.4,2.1-0.7,4.3-0.9,6.6l-4.6,0.3l0.1-1.5c0-1.9-0.5-3.4-1.4-4.3c-0.9-0.9-2.4-1.4-4.4-1.4
				c-1.4,0-2.6,0.4-3.6,1c-1,0.7-1.5,1.6-1.5,2.6c0,1.1,0.4,2,1.3,2.9c0.9,0.9,2.4,1.8,4.4,2.8c3.3,1.6,5.8,3,7.5,4.2
				c1.8,1.2,3,2.4,3.7,3.7c0.7,1.2,1,2.7,1,4.5c0,2.3-0.7,4.3-2.2,6.2c-1.5,1.9-3.6,3.4-6.1,4.5C249.6,83.9,246.7,84.5,243.6,84.5z"
				/>
		</g>
	</g>
</g>
<g>
	<g>
		<g>
			<path class="st6" d="M284.4,84.5c-5.8,0-10.4-1.7-13.8-5.1c-3.3-3.4-5-8.1-5-14c0-4,0.9-7.6,2.6-10.8c1.7-3.2,4.1-5.7,7-7.6
				c3-1.9,6.3-2.8,10-2.8c9.3,0,14,4.7,14,14.1c0,1.7-0.2,3.2-0.6,4.6l-1,1H276c0,4.1,1,7.1,2.8,9.3c1.9,2.1,4.4,3.2,7.8,3.2
				c2.9,0,6.2-0.8,9.9-2.5l0.6,0.3l1.3,4.1c-2.1,1.5-4.4,3-7.1,4.2C288.7,83.8,286.3,84.5,284.4,84.5z M287.4,58.7
				c0.7-0.1,1.1-0.2,1.3-0.4c0.2-0.2,0.3-0.7,0.3-1.5c0-4.1-1.8-6.1-5.2-6.1c-2.2,0-3.9,0.7-5.3,2.2c-1.4,1.5-2.2,3.6-2.4,6.5
				L287.4,58.7z"/>
		</g>
	</g>
</g>
<g>
	<g>
		<g>
			<path class="st7" d="M115.6,103.5c0,0.7-0.1,1.3-0.3,1.8c-0.2,0.5-0.6,1-1,1.3c-0.4,0.4-0.9,0.6-1.5,0.8
				c-0.6,0.2-1.2,0.3-1.9,0.3c-1.7,0-3.1-0.5-4.3-1.5l1-1.7c1,0.9,2.1,1.3,3.3,1.3c0.7,0,1.3-0.2,1.8-0.6c0.5-0.4,0.7-0.9,0.7-1.7
				v-1c-0.4,0.4-0.9,0.7-1.3,0.9c-0.4,0.2-0.9,0.3-1.4,0.3c-0.6,0-1.2-0.1-1.8-0.4c-0.5-0.3-1-0.6-1.4-1.1c-0.4-0.5-0.7-1-0.9-1.6
				c-0.2-0.6-0.3-1.3-0.3-1.9c0-0.7,0.1-1.3,0.3-1.9c0.2-0.6,0.5-1.1,0.9-1.6c0.4-0.5,0.8-0.8,1.4-1.1c0.5-0.3,1.1-0.4,1.8-0.4
				c0.5,0,1,0.1,1.5,0.3c0.4,0.2,0.8,0.5,1.3,0.8v-0.9h2.2V103.5z M113.5,96.4c-0.3-0.3-0.6-0.5-1-0.6c-0.4-0.2-0.8-0.2-1.2-0.2
				c-0.8,0-1.5,0.3-2,0.9c-0.5,0.6-0.7,1.3-0.7,2.2c0,0.4,0.1,0.9,0.2,1.2c0.1,0.4,0.3,0.7,0.6,1c0.2,0.3,0.5,0.5,0.9,0.6
				c0.3,0.2,0.7,0.2,1.1,0.2c0.4,0,0.8-0.1,1.2-0.2c0.4-0.2,0.7-0.4,1-0.7V96.4z"/>
		</g>
	</g>
</g>
<g>
	<g>
		<g>
			<path class="st7" d="M120.1,99.5c0.1,0.7,0.4,1.2,0.9,1.7c0.5,0.4,1.3,0.7,2.2,0.7c0.7,0,1.3-0.1,1.8-0.3c0.5-0.2,1-0.5,1.3-0.9
				l1.1,1.5c-0.6,0.6-1.3,1.1-2,1.3c-0.7,0.2-1.5,0.3-2.3,0.3c-0.8,0-1.5-0.1-2.1-0.4c-0.6-0.3-1.2-0.6-1.7-1
				c-0.5-0.5-0.8-1-1.1-1.6c-0.3-0.6-0.4-1.3-0.4-2.1c0-0.7,0.1-1.4,0.4-2c0.3-0.6,0.6-1.2,1-1.6c0.5-0.5,1-0.8,1.6-1.1
				c0.6-0.3,1.3-0.4,2.1-0.4c0.8,0,1.5,0.1,2.1,0.4c0.6,0.3,1.2,0.7,1.6,1.2c0.5,0.5,0.8,1.1,1.1,1.9c0.3,0.7,0.4,1.6,0.4,2.5H120.1
				z M125.8,97.6c-0.1-0.6-0.4-1.1-1-1.5c-0.5-0.4-1.1-0.6-1.8-0.6c-0.7,0-1.3,0.2-1.8,0.6c-0.5,0.4-0.9,0.9-1,1.5H125.8z"/>
		</g>
	</g>
</g>
<g>
	<g>
		<g>
			<path class="st7" d="M139.6,100.5c-0.1,1-0.5,1.8-1.2,2.4c-0.7,0.6-1.6,0.9-2.6,0.9c-0.6,0-1.1-0.1-1.6-0.3s-0.9-0.4-1.2-0.8
				c-0.3-0.3-0.6-0.7-0.8-1.2c-0.2-0.5-0.3-1-0.3-1.5v-4.2h-2.2v-1.9h2.2v-3.9h2.2v3.9h4.1v1.9h-4.1v4.2c0,0.6,0.1,1.1,0.4,1.4
				c0.3,0.3,0.7,0.4,1.2,0.4c0.6,0,1.1-0.2,1.4-0.5c0.3-0.4,0.5-0.8,0.5-1.3L139.6,100.5z"/>
		</g>
	</g>
</g>
<g>
	<g>
		<g>
			<path class="st7" d="M151.3,100.5c-0.1,1-0.5,1.8-1.2,2.4c-0.7,0.6-1.6,0.9-2.6,0.9c-0.6,0-1.1-0.1-1.6-0.3
				c-0.5-0.2-0.9-0.4-1.2-0.8c-0.3-0.3-0.6-0.7-0.8-1.2c-0.2-0.5-0.3-1-0.3-1.5v-4.2h-2.2v-1.9h2.2v-3.9h2.2v3.9h4.1v1.9h-4.1v4.2
				c0,0.6,0.1,1.1,0.4,1.4c0.3,0.3,0.7,0.4,1.2,0.4c0.6,0,1.1-0.2,1.4-0.5c0.3-0.4,0.5-0.8,0.5-1.3L151.3,100.5z"/>
		</g>
	</g>
</g>
<g>
	<g>
		<g>
			<path class="st7" d="M159.3,92.6h-2.6v-2.6h2.6V92.6z M161.3,103.6h-6.6v-1.9h2.2v-5.8h-2.2v-1.9h4.3v7.8h2.2V103.6z"/>
		</g>
	</g>
</g>
<g>
	<g>
		<g>
			<path class="st7" d="M174.1,103.6h-2.2v-6c0-0.8-0.1-1.3-0.4-1.6c-0.3-0.3-0.7-0.4-1.2-0.4c-0.8,0-1.5,0.3-2,1
				c-0.5,0.6-0.7,1.5-0.7,2.7v4.4h-2.2v-9.7h2.2v2.4c0.2-0.8,0.6-1.5,1.2-2c0.6-0.5,1.3-0.7,2.2-0.7c1,0,1.8,0.3,2.3,1
				c0.6,0.6,0.9,1.6,0.9,3V103.6z"/>
		</g>
	</g>
</g>
<g>
	<g>
		<g>
			<path class="st7" d="M185.8,103.5c0,0.7-0.1,1.3-0.3,1.8c-0.2,0.5-0.6,1-1,1.3c-0.4,0.4-0.9,0.6-1.5,0.8
				c-0.6,0.2-1.2,0.3-1.9,0.3c-1.7,0-3.1-0.5-4.3-1.5l1-1.7c1,0.9,2.1,1.3,3.3,1.3c0.7,0,1.3-0.2,1.8-0.6c0.5-0.4,0.7-0.9,0.7-1.7
				v-1c-0.4,0.4-0.9,0.7-1.3,0.9c-0.4,0.2-0.9,0.3-1.4,0.3c-0.6,0-1.2-0.1-1.8-0.4c-0.5-0.3-1-0.6-1.4-1.1c-0.4-0.5-0.7-1-0.9-1.6
				c-0.2-0.6-0.3-1.3-0.3-1.9c0-0.7,0.1-1.3,0.3-1.9c0.2-0.6,0.5-1.1,0.9-1.6c0.4-0.5,0.8-0.8,1.4-1.1c0.5-0.3,1.1-0.4,1.8-0.4
				c0.5,0,1,0.1,1.5,0.3c0.4,0.2,0.8,0.5,1.3,0.8v-0.9h2.2V103.5z M183.6,96.4c-0.3-0.3-0.6-0.5-1-0.6c-0.4-0.2-0.8-0.2-1.2-0.2
				c-0.8,0-1.5,0.3-2,0.9c-0.5,0.6-0.7,1.3-0.7,2.2c0,0.4,0.1,0.9,0.2,1.2c0.1,0.4,0.3,0.7,0.6,1c0.2,0.3,0.5,0.5,0.9,0.6
				c0.3,0.2,0.7,0.2,1.1,0.2c0.4,0,0.8-0.1,1.2-0.2c0.4-0.2,0.7-0.4,1-0.7V96.4z"/>
		</g>
	</g>
</g>
<g>
	<g>
		<g>
			<path class="st7" d="M209.7,95.8h-3.8v5.8h2.2v1.9h-6.6v-1.9h2.2v-5.8h-2.2v-1.9h2.2c0-1.3,0.4-2.4,1.2-3.1
				c0.8-0.7,1.9-1.1,3.3-1.1c0.2,0,0.4,0,0.7,0c0.2,0,0.5,0,0.7,0.1v1.9c-0.4,0-0.8-0.1-1.1-0.1c-0.6,0-1,0-1.3,0.1
				c-0.3,0.1-0.6,0.2-0.8,0.4c-0.2,0.2-0.3,0.4-0.4,0.7c-0.1,0.3-0.1,0.6-0.1,1h3.8V95.8z"/>
		</g>
	</g>
</g>
<g>
	<g>
		<g>
			<path class="st7" d="M212.1,93.8h2.2v6c0,0.8,0.1,1.3,0.4,1.6c0.3,0.3,0.7,0.4,1.2,0.4c0.8,0,1.4-0.3,1.9-1
				c0.5-0.7,0.8-1.6,0.8-2.7v-4.4h2.2v9.7h-2.2v-2.4c-0.2,0.8-0.6,1.5-1.2,2c-0.6,0.5-1.3,0.7-2.2,0.7c-1,0-1.8-0.3-2.4-1
				c-0.6-0.7-0.8-1.7-0.8-3V93.8z"/>
		</g>
	</g>
</g>
<g>
	<g>
		<g>
			<path class="st7" d="M233.2,100.5c-0.1,1-0.5,1.8-1.2,2.4c-0.7,0.6-1.6,0.9-2.6,0.9c-0.6,0-1.1-0.1-1.6-0.3s-0.9-0.4-1.2-0.8
				c-0.3-0.3-0.6-0.7-0.8-1.2c-0.2-0.5-0.3-1-0.3-1.5v-4.2h-2.2v-1.9h2.2v-3.9h2.2v3.9h4.1v1.9h-4.1v4.2c0,0.6,0.1,1.1,0.4,1.4
				c0.3,0.3,0.7,0.4,1.2,0.4c0.6,0,1.1-0.2,1.4-0.5c0.3-0.4,0.5-0.8,0.5-1.3L233.2,100.5z"/>
		</g>
	</g>
</g>
<g>
	<g>
		<g>
			<path class="st7" d="M235.5,93.8h2.2v6c0,0.8,0.1,1.3,0.4,1.6c0.3,0.3,0.7,0.4,1.2,0.4c0.8,0,1.4-0.3,1.9-1
				c0.5-0.7,0.8-1.6,0.8-2.7v-4.4h2.2v9.7h-2.2v-2.4c-0.2,0.8-0.6,1.5-1.2,2c-0.6,0.5-1.3,0.7-2.2,0.7c-1,0-1.8-0.3-2.4-1
				c-0.6-0.7-0.8-1.7-0.8-3V93.8z"/>
		</g>
	</g>
</g>
<g>
	<g>
		<g>
			<path class="st7" d="M256.2,96.1c-0.3-0.1-0.5-0.2-0.8-0.3c-0.3-0.1-0.6-0.1-0.9-0.1c-0.5,0-0.9,0.1-1.4,0.2
				c-0.4,0.1-0.8,0.4-1.1,0.6c-0.3,0.3-0.5,0.6-0.7,1.1c-0.2,0.4-0.3,0.9-0.3,1.5v2.4h2.2v1.9h-6.6v-1.9h2.2v-5.8h-2.2v-1.9h4.4v2.4
				c0.4-1,0.9-1.7,1.6-2.1c0.7-0.4,1.5-0.6,2.5-0.6c0.3,0,0.6,0,0.9,0.1c0.3,0.1,0.6,0.2,1,0.3L256.2,96.1z"/>
		</g>
	</g>
</g>
<g>
	<g>
		<g>
			<path class="st7" d="M260.4,99.5c0.1,0.7,0.4,1.2,0.9,1.7c0.5,0.4,1.3,0.7,2.2,0.7c0.7,0,1.3-0.1,1.8-0.3c0.5-0.2,1-0.5,1.3-0.9
				l1.1,1.5c-0.6,0.6-1.3,1.1-2,1.3c-0.7,0.2-1.5,0.3-2.3,0.3c-0.8,0-1.5-0.1-2.1-0.4c-0.6-0.3-1.2-0.6-1.7-1
				c-0.5-0.5-0.8-1-1.1-1.6c-0.3-0.6-0.4-1.3-0.4-2.1c0-0.7,0.1-1.4,0.4-2c0.3-0.6,0.6-1.2,1-1.6c0.5-0.5,1-0.8,1.6-1.1
				c0.6-0.3,1.3-0.4,2.1-0.4c0.8,0,1.5,0.1,2.1,0.4c0.6,0.3,1.2,0.7,1.6,1.2c0.5,0.5,0.8,1.1,1.1,1.9c0.3,0.7,0.4,1.6,0.4,2.5H260.4
				z M266.1,97.6c-0.1-0.6-0.4-1.1-1-1.5c-0.5-0.4-1.1-0.6-1.8-0.6c-0.7,0-1.3,0.2-1.8,0.6c-0.5,0.4-0.9,0.9-1,1.5H266.1z"/>
		</g>
	</g>
</g>
<g>
	<g>
		<g>
			<path class="st7" d="M291.3,96.1c-0.3-0.1-0.5-0.2-0.8-0.3c-0.3-0.1-0.6-0.1-0.9-0.1c-0.5,0-0.9,0.1-1.4,0.2
				c-0.4,0.1-0.8,0.4-1.1,0.6c-0.3,0.3-0.5,0.6-0.7,1.1c-0.2,0.4-0.3,0.9-0.3,1.5v2.4h2.2v1.9h-6.6v-1.9h2.2v-5.8h-2.2v-1.9h4.4v2.4
				c0.4-1,0.9-1.7,1.6-2.1c0.7-0.4,1.5-0.6,2.5-0.6c0.3,0,0.6,0,0.9,0.1c0.3,0.1,0.6,0.2,1,0.3L291.3,96.1z"/>
		</g>
	</g>
</g>
<g>
	<g>
		<g>
			<path class="st7" d="M295.4,99.5c0.1,0.7,0.4,1.2,0.9,1.7c0.5,0.4,1.3,0.7,2.2,0.7c0.7,0,1.3-0.1,1.8-0.3c0.5-0.2,1-0.5,1.3-0.9
				l1.1,1.5c-0.6,0.6-1.3,1.1-2,1.3c-0.7,0.2-1.5,0.3-2.3,0.3c-0.8,0-1.5-0.1-2.1-0.4c-0.6-0.3-1.2-0.6-1.7-1
				c-0.5-0.5-0.8-1-1.1-1.6c-0.3-0.6-0.4-1.3-0.4-2.1c0-0.7,0.1-1.4,0.4-2c0.3-0.6,0.6-1.2,1-1.6c0.5-0.5,1-0.8,1.6-1.1
				c0.6-0.3,1.3-0.4,2.1-0.4c0.8,0,1.5,0.1,2.1,0.4c0.6,0.3,1.2,0.7,1.6,1.2c0.5,0.5,0.8,1.1,1.1,1.9c0.3,0.7,0.4,1.6,0.4,2.5H295.4
				z M301.2,97.6c-0.1-0.6-0.4-1.1-1-1.5c-0.5-0.4-1.1-0.6-1.8-0.6c-0.7,0-1.3,0.2-1.8,0.6c-0.5,0.4-0.9,0.9-1,1.5H301.2z"/>
		</g>
	</g>
</g>
<g>
	<g>
		<g>
			<path class="st7" d="M305.1,100.8c0-0.6,0.1-1.1,0.4-1.5c0.3-0.4,0.7-0.8,1.2-1.1c0.5-0.3,1.1-0.5,1.7-0.6c0.6-0.1,1.3-0.2,2-0.2
				c0.4,0,0.7,0,0.9,0c0.3,0,0.5,0,0.8,0.1V97c0-0.5-0.2-0.9-0.6-1.1c-0.4-0.3-0.9-0.4-1.5-0.4c-0.6,0-1.2,0.1-1.8,0.3
				c-0.6,0.2-1.2,0.4-1.7,0.7l-0.9-1.7c0.6-0.4,1.3-0.7,2.1-0.9c0.7-0.2,1.5-0.3,2.3-0.3c0.5,0,1,0.1,1.6,0.2c0.5,0.1,1,0.3,1.4,0.6
				c0.4,0.3,0.7,0.6,1,1.1c0.2,0.4,0.4,1,0.4,1.6v6.5h-2.1v-1.4c-0.3,0.5-0.9,0.9-1.5,1.2c-0.7,0.3-1.4,0.4-2.1,0.4
				c-0.5,0-0.9-0.1-1.3-0.2c-0.4-0.1-0.8-0.3-1.1-0.6c-0.3-0.3-0.5-0.6-0.7-0.9C305.2,101.7,305.1,101.3,305.1,100.8z M309.1,101.9
				c0.4,0,0.8,0,1.2-0.1c0.4-0.1,0.7-0.3,1-0.4c0.3-0.2,0.5-0.4,0.7-0.7c0.2-0.3,0.3-0.6,0.3-0.9v-0.4c-0.3-0.1-0.7-0.1-1-0.1
				c-0.3,0-0.6,0-0.8,0c-1.1,0-1.9,0.1-2.4,0.4c-0.5,0.3-0.8,0.6-0.8,1C307.2,101.5,307.9,101.9,309.1,101.9z"/>
		</g>
	</g>
</g>
<g>
	<g>
		<g>
			<path class="st7" d="M326.1,103.6h-2.2v-0.9c-0.4,0.4-0.8,0.7-1.3,0.9c-0.4,0.2-0.9,0.3-1.5,0.3c-0.6,0-1.2-0.1-1.8-0.4
				c-0.5-0.3-1-0.6-1.4-1c-0.4-0.5-0.7-1-0.9-1.6c-0.2-0.6-0.3-1.3-0.3-2.1c0-0.7,0.1-1.4,0.3-2.1c0.2-0.6,0.5-1.2,0.9-1.6
				c0.4-0.5,0.8-0.8,1.4-1.1c0.5-0.3,1.1-0.4,1.8-0.4c0.5,0,1,0.1,1.5,0.3c0.4,0.2,0.8,0.5,1.3,0.8v-2.8H322v-1.9h4V103.6z
				 M323.9,96.4c-0.3-0.3-0.6-0.5-1-0.6c-0.4-0.2-0.8-0.2-1.2-0.2c-0.8,0-1.5,0.3-2,0.9c-0.5,0.6-0.8,1.3-0.8,2.3
				c0,0.9,0.3,1.7,0.8,2.3c0.5,0.6,1.2,0.9,2,0.9c0.4,0,0.8-0.1,1.2-0.2c0.4-0.2,0.7-0.4,1-0.7V96.4z"/>
		</g>
	</g>
</g>
<g>
	<g>
		<g>
			<path class="st7" d="M338.2,93.8l-4.2,11.7c-0.3,0.8-0.8,1.4-1.4,1.7c-0.6,0.3-1.3,0.5-2.1,0.5c-0.3,0-0.6,0-0.9-0.1
				c-0.3-0.1-0.7-0.1-1-0.3l0.4-2c0.3,0.1,0.6,0.2,0.8,0.2c0.3,0,0.5,0.1,0.7,0.1c0.6,0,1.1-0.3,1.3-0.9l0.4-0.9l-3.7-10h2.2
				l2.7,7.4l2.5-7.4H338.2z"/>
		</g>
	</g>
</g>
<g>
	<g>
		<g>
			<path class="st7" d="M346.4,103.6h-2.6v-2.6h2.6V103.6z M350.3,103.6h-2.6v-2.6h2.6V103.6z M342.5,103.6h-2.6v-2.6h2.6V103.6z"/>
		</g>
	</g>
</g>
</svg>
