<svg xmlns="http://www.w3.org/2000/svg" viewBox="0 0 704.45 124.89"><defs><style>.cls-1{fill:#1984c5}</style></defs><title>Asset 10</title><g id="Layer_2" data-name="Layer 2"><g id="Blue"><path d="M107.91,123.43a30.46,30.46,0,0,1-19.24-6.73A30.8,30.8,0,0,1,77.48,91.28a30.31,30.31,0,0,1-24-6.58C41.2,74.53,39,56.22,48.41,43L87.68,3.17A7,7,0,0,1,97.59,13L59.46,51.52c-4.87,7.26-3.65,17,2.88,22.46,6,5,15.1,4.87,21.36-.16L153,4.26a7,7,0,0,1,9.87,9.83L94.27,83c-4.87,7.51-3.52,17.49,3.18,22.93,6.07,4.92,15.06,4.83,21.49-.18L223.67,3.35a7,7,0,0,1,9.74,10L128.19,116.15l-.26.21A31.92,31.92,0,0,1,107.91,123.43Z" class="cls-1"/><path d="M20.21,43.07a7.57,7.57,0,0,1,0-9.85L51.64,2.08A7,7,0,0,1,61.45,12Q46.36,27.38,31.26,42.79A7.62,7.62,0,0,1,20.21,43.07Z" class="cls-1"/><circle cx="10.89" cy="10.89" r="10.89" class="cls-1"/><path d="M255.82,43.89v27h31.76V83.2H255.82v28.19h35.73V123.7H240.73V31.59h50.82v12.3Z"/><path d="M309.62,67.45a33.27,33.27,0,0,1,30-17.87,34.17,34.17,0,0,1,14.1,3.12A28.86,28.86,0,0,1,364.74,61V25.76H380V123.7H364.74v-11a28.3,28.3,0,0,1-10.26,8.74,31.89,31.89,0,0,1-15,3.44,32.61,32.61,0,0,1-17.4-4.83,34.06,34.06,0,0,1-12.44-13.5,41.47,41.47,0,0,1-4.57-19.66A40.29,40.29,0,0,1,309.62,67.45Zm52,6.62a21.86,21.86,0,0,0-8.14-8.47,21.32,21.32,0,0,0-10.85-2.91,21.38,21.38,0,0,0-19,11.18,26.06,26.06,0,0,0-3.11,13,27.21,27.21,0,0,0,3.11,13.24,22,22,0,0,0,8.21,8.67,21.08,21.08,0,0,0,10.79,3,21.33,21.33,0,0,0,10.85-2.92,21.76,21.76,0,0,0,8.14-8.53,26.82,26.82,0,0,0,3.11-13.17A26.42,26.42,0,0,0,361.63,74.07Z"/><path d="M519.57,31.72l-27.26,92H475.24L455.92,54.08,435.4,123.7l-16.93.13L392.39,31.72h16l19,74.9,20.65-74.9h16.94l19.19,74.51,19.19-74.51Z"/><path d="M532.81,38.34A9.34,9.34,0,0,1,530,31.45a9.5,9.5,0,0,1,9.66-9.66,9.22,9.22,0,0,1,6.75,2.78,9.37,9.37,0,0,1,2.78,6.88,9.38,9.38,0,0,1-2.78,6.89,9.22,9.22,0,0,1-6.75,2.78A9.34,9.34,0,0,1,532.81,38.34ZM547.1,50.78V123.7H532V50.78Z"/><path d="M578,121.78a27.16,27.16,0,0,1-10.79-8.47,21.14,21.14,0,0,1-4.23-12h15.61a10.66,10.66,0,0,0,4.44,7.74,16,16,0,0,0,10.12,3.11q6.36,0,9.86-2.45a7.37,7.37,0,0,0,3.51-6.28,6.44,6.44,0,0,0-3.91-6.09A73.34,73.34,0,0,0,590.24,93a120,120,0,0,1-13.37-4.36,23.59,23.59,0,0,1-8.93-6.49q-3.77-4.36-3.77-11.51A18,18,0,0,1,567.61,60a22.94,22.94,0,0,1,9.86-7.61,36.9,36.9,0,0,1,14.76-2.78q12.43,0,20,6.29T620.41,73H605.33a10.78,10.78,0,0,0-4-7.81c-2.38-1.94-5.61-2.91-9.66-2.91s-7,.75-9.14,2.25a7,7,0,0,0-3.17,5.95,6.41,6.41,0,0,0,2.12,4.9,15.11,15.11,0,0,0,5.16,3.11q3,1.13,9,2.85a97.29,97.29,0,0,1,13,4.3,24.1,24.1,0,0,1,8.8,6.42q3.71,4.23,3.84,11.24a18.89,18.89,0,0,1-3.44,11.12,22.88,22.88,0,0,1-9.73,7.68,36.28,36.28,0,0,1-14.75,2.78A36.77,36.77,0,0,1,578,121.78Z"/><path d="M703.92,92.86H648.2A20.11,20.11,0,0,0,669,112.18q12.18,0,17.21-10.19h16.27a32.79,32.79,0,0,1-12,16.48q-8.67,6.42-21.51,6.42a37.23,37.23,0,0,1-18.72-4.7,33.38,33.38,0,0,1-13-13.24,40.26,40.26,0,0,1-4.7-19.78,41.41,41.41,0,0,1,4.56-19.79A32.18,32.18,0,0,1,650,54.22a38.19,38.19,0,0,1,19-4.64,37.29,37.29,0,0,1,18.4,4.5A31.85,31.85,0,0,1,700,66.72a38.08,38.08,0,0,1,4.5,18.73A47.5,47.5,0,0,1,703.92,92.86ZM688.7,80.68a17.17,17.17,0,0,0-6-13.36,21.34,21.34,0,0,0-14.43-5,19.38,19.38,0,0,0-13.37,5q-5.55,5-6.61,13.43Z"/></g></g></svg>